<svg xmlns="http://www.w3.org/2000/svg" viewBox="0 0 192 192">
  <rect width="192" height="192" fill="#f97316"/>
  <rect x="24" y="20" width="144" height="152" rx="18" fill="#111"/>
  <rect x="34" y="30" width="124" height="42" rx="8" fill="#1a1a1a"/>
  <rect x="100" y="50" width="46" height="14" rx="4" fill="#f97316"/>
  <rect x="28" y="84" width="26" height="22" rx="5" fill="#2a2a2a"/>
  <rect x="60" y="84" width="26" height="22" rx="5" fill="#2a2a2a"/>
  <rect x="92" y="84" width="26" height="22" rx="5" fill="#2a2a2a"/>
  <rect x="124" y="84" width="26" height="22" rx="5" fill="#f97316"/>
  <rect x="28" y="112" width="26" height="22" rx="5" fill="#2a2a2a"/>
  <rect x="60" y="112" width="26" height="22" rx="5" fill="#2a2a2a"/>
  <rect x="92" y="112" width="26" height="22" rx="5" fill="#2a2a2a"/>
  <rect x="124" y="112" width="26" height="22" rx="5" fill="#f97316"/>
  <rect x="28" y="140" width="26" height="22" rx="5" fill="#eab308"/>
  <rect x="60" y="140" width="26" height="22" rx="5" fill="#2a2a2a"/>
  <rect x="92" y="140" width="26" height="22" rx="5" fill="#2a2a2a"/>
  <rect x="124" y="140" width="26" height="22" rx="5" fill="#f97316"/>
</svg>
